<?xml version="1.0" encoding="UTF-8" standalone="no"?>
<svg
   viewBox="0 0 492.97 153.01"
   version="1.1"
   id="svg4073"
   sodipodi:docname="SOS_Logo_Blue.svg"
   inkscape:version="1.1 (c68e22c387, 2021-05-23)"
   xmlns:inkscape="http://www.inkscape.org/namespaces/inkscape"
   xmlns:sodipodi="http://sodipodi.sourceforge.net/DTD/sodipodi-0.dtd"
   xmlns="http://www.w3.org/2000/svg"
   xmlns:svg="http://www.w3.org/2000/svg">
  <sodipodi:namedview
     id="namedview4075"
     pagecolor="#ffffff"
     bordercolor="#666666"
     borderopacity="1.0"
     inkscape:pageshadow="2"
     inkscape:pageopacity="0.0"
     inkscape:pagecheckerboard="0"
     showgrid="false"
     inkscape:zoom="2.943384"
     inkscape:cx="196.88223"
     inkscape:cy="43.487361"
     inkscape:window-width="3440"
     inkscape:window-height="1334"
     inkscape:window-x="-11"
     inkscape:window-y="-11"
     inkscape:window-maximized="1"
     inkscape:current-layer="Layer_1-2" />
  <defs
     id="defs4037">
    <style
       id="style4035">.cls-1{fill:#007e33;}.cls-2{fill:#c00;}.cls-3{fill:#f80;}.cls-4{fill:#3f4344;}.cls-5{fill:#09c;}</style>
  </defs>
  <g
     id="Layer_2"
     data-name="Layer 2">
    <g
       id="Layer_1-2"
       data-name="Layer 1">
      <polygon
         class="cls-1"
         points="126.66,125.27 109.3,135.01 109.3,77.45 126.66,77.45 126.66,104.34 136.12,99.03 136.12,68.31 109.3,68.31 109.3,0 153.48,0 153.48,41.34 136.12,41.34 136.12,18.14 126.66,18.14 126.66,50.49 153.48,50.49 153.48,110.22 136.12,119.96 "
         id="polygon4039"
         style="fill:#0099cc;fill-opacity:1" />
      <polygon
         class="cls-2"
         points="17.36,118.97 0,109.1 0,77.45 17.36,77.45 17.36,98.05 26.82,103.42 26.82,68.31 0,68.31 0,0 44.18,0 44.18,41.34 26.82,41.34 26.82,18.14 17.36,18.14 17.36,50.49 44.18,50.49 44.18,134.22 26.82,124.35 "
         id="polygon4041"
         style="fill:#0099cc;fill-opacity:1" />
      <path
         class="cls-3"
         d="m 54.8,0 v 140.26 l 3.91,2.21 13.46,7.66 5.06,2.87 4.39,-2.47 14.14,-7.93 3.24,-1.8 V 0 Z m 26.82,129.61 -4.39,2.47 -5.06,-2.88 V 18.14 h 9.45 z"
         id="path4043"
         style="fill:#0099cc;fill-opacity:1" />
      <path
         class="cls-4"
         d="m 183,70.69 a 31,31 0 0 1 -10.31,-4.84 l 4.55,-10.11 a 30.63,30.63 0 0 0 8.87,4.39 33.08,33.08 0 0 0 10.27,1.66 c 3.81,0 6.62,-0.56 8.45,-1.7 a 5.12,5.12 0 0 0 2.73,-4.51 4.31,4.31 0 0 0 -1.62,-3.44 12.09,12.09 0 0 0 -4.16,-2.14 c -1.68,-0.56 -4,-1.16 -6.83,-1.83 A 92.71,92.71 0 0 1 184.1,45 17.66,17.66 0 0 1 176.85,39.94 q -3,-3.48 -3,-9.27 a 16.19,16.19 0 0 1 2.73,-9.16 18.39,18.39 0 0 1 8.22,-6.51 33.65,33.65 0 0 1 13.46,-2.4 44.23,44.23 0 0 1 10.85,1.33 31.81,31.81 0 0 1 9.28,3.81 l -4.14,10.18 a 32.4,32.4 0 0 0 -16.07,-4.55 q -5.64,0 -8.32,1.82 a 5.57,5.57 0 0 0 -2.7,4.8 4.71,4.71 0 0 0 3.11,4.44 49.37,49.37 0 0 0 9.48,2.85 93.87,93.87 0 0 1 10.85,3.15 18,18 0 0 1 7.25,5 q 3,3.4 3,9.19 a 15.81,15.81 0 0 1 -2.78,9.07 18.59,18.59 0 0 1 -8.32,6.51 34,34 0 0 1 -13.5,2.4 A 47.18,47.18 0 0 1 183,70.69 Z"
         id="path4045"
         style="fill:#3d405b;fill-opacity:1" />
      <path
         class="cls-4"
         d="m 272.56,52.93 h -33.71 a 10.48,10.48 0 0 0 4.31,6.54 14.26,14.26 0 0 0 8.44,2.4 17.18,17.18 0 0 0 6.18,-1 15,15 0 0 0 5,-3.27 l 6.88,7.4 q -6.3,7.22 -18.39,7.21 A 29.07,29.07 0 0 1 237.94,69.27 21.54,21.54 0 0 1 229,61.13 22.48,22.48 0 0 1 225.85,49.28 22.79,22.79 0 0 1 229,37.48 a 21.7,21.7 0 0 1 8.53,-8.2 25.06,25.06 0 0 1 12.14,-2.94 24.8,24.8 0 0 1 11.84,2.82 20.51,20.51 0 0 1 8.32,8.07 24.05,24.05 0 0 1 3,12.22 c -0.02,0.16 -0.1,1.32 -0.27,3.48 z M 242.33,38.6 a 10.57,10.57 0 0 0 -3.65,6.79 h 21.95 a 10.64,10.64 0 0 0 -3.63,-6.75 10.93,10.93 0 0 0 -7.29,-2.53 11.11,11.11 0 0 0 -7.38,2.49 z"
         id="path4047"
         style="fill:#3d405b;fill-opacity:1" />
      <path
         class="cls-4"
         d="m 290.16,69.29 a 22,22 0 0 1 -8.86,-8.16 22.24,22.24 0 0 1 -3.19,-11.85 22.23,22.23 0 0 1 3.19,-11.84 22,22 0 0 1 8.86,-8.16 27.4,27.4 0 0 1 12.84,-2.94 24.82,24.82 0 0 1 12.3,2.94 17.44,17.44 0 0 1 7.66,8.41 l -10,5.38 q -3.48,-6.12 -10,-6.13 a 11.35,11.35 0 0 0 -8.37,3.32 q -3.31,3.3 -3.31,9 0,5.7 3.31,9 a 11.35,11.35 0 0 0 8.37,3.32 q 6.62,0 10,-6.13 l 10,5.46 a 17.81,17.81 0 0 1 -7.66,8.29 24.62,24.62 0 0 1 -12.3,3 27.4,27.4 0 0 1 -12.84,-2.91 z"
         id="path4049"
         style="fill:#3d405b;fill-opacity:1" />
      <path
         class="cls-5"
         d="m 342.59,68.67 a 29,29 0 0 1 -11.35,-10.73 29.34,29.34 0 0 1 -4.1,-15.37 29.3,29.3 0 0 1 4.1,-15.36 29,29 0 0 1 11.35,-10.73 35.91,35.91 0 0 1 32.51,0 29,29 0 0 1 15.49,26.09 29,29 0 0 1 -15.49,26.1 35.91,35.91 0 0 1 -32.51,0 z m 25.55,-9.9 a 17,17 0 0 0 6.51,-6.59 19.39,19.39 0 0 0 2.35,-9.61 19.37,19.37 0 0 0 -2.36,-9.6 17,17 0 0 0 -6.51,-6.59 19.41,19.41 0 0 0 -18.55,0 16.88,16.88 0 0 0 -6.5,6.59 19.27,19.27 0 0 0 -2.36,9.6 19.28,19.28 0 0 0 2.36,9.61 17,17 0 0 0 6.5,6.59 19.41,19.41 0 0 0 18.55,0 z"
         id="path4051" />
      <path
         class="cls-5"
         d="m 437.43,29.2 a 20.43,20.43 0 0 1 8,8 24.18,24.18 0 0 1 2.9,12.05 24.22,24.22 0 0 1 -2.9,12.06 20.43,20.43 0 0 1 -8,8 22.77,22.77 0 0 1 -11.31,2.86 q -8.52,0 -13.41,-5.39 V 87.63 H 399.78 V 27 h 12.35 v 5.14 q 4.8,-5.8 14,-5.8 a 22.66,22.66 0 0 1 11.3,2.86 z m -5.38,29.07 a 12.54,12.54 0 0 0 3.19,-9 12.51,12.51 0 0 0 -3.19,-9 11.59,11.59 0 0 0 -16.32,0 12.47,12.47 0 0 0 -3.19,9 12.49,12.49 0 0 0 3.19,9 11.59,11.59 0 0 0 16.32,0 z"
         id="path4053" />
      <path
         class="cls-5"
         d="m 461.08,70.86 a 28.29,28.29 0 0 1 -8.45,-3.44 l 4.31,-9.27 a 27,27 0 0 0 7.2,3.1 30.27,30.27 0 0 0 8.29,1.2 q 8.19,0 8.2,-4.06 a 2.88,2.88 0 0 0 -2.24,-2.73 33.42,33.42 0 0 0 -6.88,-1.41 65.6,65.6 0 0 1 -9,-1.9 14,14 0 0 1 -6.17,-3.81 q -2.61,-2.73 -2.61,-7.79 a 12.18,12.18 0 0 1 2.44,-7.49 15.78,15.78 0 0 1 7.12,-5.1 30.55,30.55 0 0 1 11.06,-1.82 43.39,43.39 0 0 1 9.4,1 26.52,26.52 0 0 1 7.75,2.85 l -4.31,9.2 a 25.71,25.71 0 0 0 -12.84,-3.32 13.09,13.09 0 0 0 -6.21,1.16 3.42,3.42 0 0 0 -2.07,3 2.94,2.94 0 0 0 2.23,2.89 39.31,39.31 0 0 0 7.13,1.58 77.12,77.12 0 0 1 8.94,1.94 13.54,13.54 0 0 1 6,3.77 q 2.63,2.78 2.63,7.65 a 11.77,11.77 0 0 1 -2.49,7.38 15.85,15.85 0 0 1 -7.25,5 32.41,32.41 0 0 1 -11.3,1.78 43.31,43.31 0 0 1 -10.88,-1.36 z"
         id="path4055" />
      <path
         class="cls-4"
         d="m 178.66,104.31 a 10.53,10.53 0 0 1 -4.07,-2.58 l 0.86,-1.43 a 10.09,10.09 0 0 0 3.74,2.39 13.35,13.35 0 0 0 4.95,0.92 9.37,9.37 0 0 0 5.67,-1.43 4.42,4.42 0 0 0 1.92,-3.72 3.91,3.91 0 0 0 -1,-2.82 6.84,6.84 0 0 0 -2.53,-1.64 36.48,36.48 0 0 0 -4.06,-1.16 41.06,41.06 0 0 1 -4.65,-1.39 7.48,7.48 0 0 1 -3,-2.09 5.59,5.59 0 0 1 -1.22,-3.78 6.44,6.44 0 0 1 1,-3.51 6.94,6.94 0 0 1 3.11,-2.54 12.59,12.59 0 0 1 5.2,-0.94 14.53,14.53 0 0 1 4.29,0.64 12.46,12.46 0 0 1 3.69,1.77 l -0.72,1.54 a 12.21,12.21 0 0 0 -3.47,-1.66 13.37,13.37 0 0 0 -3.75,-0.56 8.82,8.82 0 0 0 -5.52,1.47 4.56,4.56 0 0 0 -1.88,3.79 3.91,3.91 0 0 0 1,2.82 6.6,6.6 0 0 0 2.53,1.6 36,36 0 0 0 4.1,1.2 37,37 0 0 1 4.62,1.4 7.64,7.64 0 0 1 3,2 5.4,5.4 0 0 1 1.22,3.71 6.22,6.22 0 0 1 -1,3.49 6.92,6.92 0 0 1 -3.17,2.52 13.08,13.08 0 0 1 -5.27,0.94 15.46,15.46 0 0 1 -5.59,-0.95 z"
         id="path4057"
         style="fill:#3d405b;fill-opacity:1" />
      <path
         class="cls-4"
         d="m 218.69,103.88 a 4.76,4.76 0 0 1 -1.79,1 7,7 0 0 1 -2.23,0.36 4.87,4.87 0 0 1 -5.34,-5.34 V 87.11 h -3.61 v -1.62 h 3.61 V 81.2 h 1.88 v 4.29 h 6.24 v 1.62 h -6.24 v 12.63 a 4.1,4.1 0 0 0 0.92,2.91 3.5,3.5 0 0 0 2.72,1 4.35,4.35 0 0 0 3.05,-1.09 z"
         id="path4059"
         style="fill:#3d405b;fill-opacity:1" />
      <path
         class="cls-4"
         d="M 249.18,95.75 H 232.3 a 8.17,8.17 0 0 0 1.17,4.08 7.42,7.42 0 0 0 2.95,2.77 8.89,8.89 0 0 0 4.19,1 9,9 0 0 0 3.55,-0.69 7,7 0 0 0 2.73,-2 l 1.09,1.24 a 8.28,8.28 0 0 1 -3.22,2.37 11.15,11.15 0 0 1 -9.41,-0.45 9.28,9.28 0 0 1 -3.6,-3.54 10.18,10.18 0 0 1 -1.29,-5.15 10.62,10.62 0 0 1 1.22,-5.13 8.94,8.94 0 0 1 3.37,-3.55 9.71,9.71 0 0 1 9.6,0 9,9 0 0 1 3.35,3.41 10.64,10.64 0 0 1 1.22,5.12 z m -13,-7.84 a 7.06,7.06 0 0 0 -2.66,2.6 8.46,8.46 0 0 0 -1.14,3.78 h 15 a 7.86,7.86 0 0 0 -1.13,-3.76 7.67,7.67 0 0 0 -10.11,-2.62 z"
         id="path4061"
         style="fill:#3d405b;fill-opacity:1" />
      <path
         class="cls-4"
         d="m 292.12,85.49 -7.44,19.63 h -1.77 l -6.62,-17 -6.65,17 h -1.73 l -7.45,-19.63 h 1.81 l 6.54,17.51 6.69,-17.52 h 1.62 l 6.65,17.52 6.62,-17.48 z"
         id="path4063"
         style="fill:#3d405b;fill-opacity:1" />
      <path
         class="cls-4"
         d="m 317.5,87.2 a 7.21,7.21 0 0 1 2,5.47 v 12.45 h -1.81 v -3.5 a 6.58,6.58 0 0 1 -2.74,2.69 9.14,9.14 0 0 1 -4.33,1 8,8 0 0 1 -5.17,-1.55 5.32,5.32 0 0 1 -0.15,-8 c 1.17,-1 3,-1.52 5.59,-1.52 h 6.73 V 92.6 a 5.56,5.56 0 0 0 -1.49,-4.18 6,6 0 0 0 -4.38,-1.42 10.46,10.46 0 0 0 -3.74,0.68 9.44,9.44 0 0 0 -3,1.8 L 304,88.12 a 10.51,10.51 0 0 1 3.53,-2.05 12.83,12.83 0 0 1 4.33,-0.73 7.81,7.81 0 0 1 5.64,1.86 z m -2.5,15.4 a 6.92,6.92 0 0 0 2.58,-3.27 v -3.69 h -6.7 a 6.68,6.68 0 0 0 -4.19,1 3.56,3.56 0 0 0 -1.3,2.9 3.64,3.64 0 0 0 1.43,3 6.46,6.46 0 0 0 4,1.1 7.37,7.37 0 0 0 4.18,-1.04 z"
         id="path4065"
         style="fill:#3d405b;fill-opacity:1" />
      <path
         class="cls-4"
         d="m 341.23,86.49 a 8.85,8.85 0 0 1 4.66,-1.15 v 1.84 h -0.45 a 6.56,6.56 0 0 0 -5.12,2 8.28,8.28 0 0 0 -1.84,5.7 v 10.23 H 336.6 V 85.49 h 1.81 v 4.29 a 6.75,6.75 0 0 1 2.82,-3.29 z"
         id="path4067"
         style="fill:#3d405b;fill-opacity:1" />
      <path
         class="cls-4"
         d="m 377.73,77.22 v 27.9 h -1.84 v -4.63 a 8.37,8.37 0 0 1 -3.27,3.54 9.27,9.27 0 0 1 -4.77,1.24 9.81,9.81 0 0 1 -5,-1.28 9.11,9.11 0 0 1 -3.48,-3.54 10.47,10.47 0 0 1 -1.25,-5.15 10.6,10.6 0 0 1 1.25,-5.17 9,9 0 0 1 3.48,-3.53 9.9,9.9 0 0 1 5,-1.26 9.07,9.07 0 0 1 4.72,1.24 8.91,8.91 0 0 1 3.29,3.42 V 77.22 Z m -5.73,25.3 a 7.57,7.57 0 0 0 2.82,-2.93 9.35,9.35 0 0 0 0,-8.57 7.6,7.6 0 0 0 -2.82,-2.94 8.3,8.3 0 0 0 -8.08,0 7.6,7.6 0 0 0 -2.82,2.92 9.35,9.35 0 0 0 0,8.57 7.57,7.57 0 0 0 2.82,2.93 8.3,8.3 0 0 0 8.08,0 z"
         id="path4069"
         style="fill:#3d405b;fill-opacity:1" />
    </g>
  </g>
</svg>
