<?xml version="1.0" encoding="UTF-8" standalone="no"?>
<svg
   viewBox="0 0 278.7 277.85"
   version="1.1"
   id="svg79"
   sodipodi:docname="SOS_Icon_Blue2.svg"
   inkscape:version="1.1 (c68e22c387, 2021-05-23)"
   xmlns:inkscape="http://www.inkscape.org/namespaces/inkscape"
   xmlns:sodipodi="http://sodipodi.sourceforge.net/DTD/sodipodi-0.dtd"
   xmlns="http://www.w3.org/2000/svg"
   xmlns:svg="http://www.w3.org/2000/svg">
  <sodipodi:namedview
     id="namedview81"
     pagecolor="#ffffff"
     bordercolor="#666666"
     borderopacity="1.0"
     inkscape:pageshadow="2"
     inkscape:pageopacity="0.0"
     inkscape:pagecheckerboard="0"
     showgrid="false"
     inkscape:zoom="0.9861436"
     inkscape:cx="1018.6143"
     inkscape:cy="298.13102"
     inkscape:window-width="3440"
     inkscape:window-height="1334"
     inkscape:window-x="-11"
     inkscape:window-y="-11"
     inkscape:window-maximized="1"
     inkscape:current-layer="Layer_1-2" />
  <defs
     id="defs69">
    <linearGradient
       id="linearGradient3767"
       inkscape:swatch="solid">
      <stop
         style="stop-color:#3d405b;stop-opacity:1;"
         offset="0"
         id="stop3765" />
    </linearGradient>
    <style
       id="style67">.cls-1{fill:#007e33;}.cls-2{fill:#c00;}.cls-3{fill:#f80;}</style>
  </defs>
  <g
     id="Layer_2"
     data-name="Layer 2">
    <g
       id="Layer_1-2"
       data-name="Layer 1">
      <polygon
         class="cls-1"
         points="230,140.64 230,189.46 247.18,179.82 247.18,124.03 198.47,124.03 198.47,0 278.7,0 278.7,75.07 247.18,75.07 247.18,32.94 230,32.94 230,91.68 278.7,91.68 278.7,200.14 247.18,217.83 230,227.47 198.47,245.17 198.47,140.64 "
         id="polygon71"
         style="fill:#0099cc;fill-opacity:1;stroke:#000000;stroke-opacity:1;stroke-width:2;stroke-miterlimit:4;stroke-dasharray:none" />
      <polygon
         class="cls-2"
         points="31.53,140.64 31.53,178.04 48.7,187.8 48.7,124.03 0,124.03 0,0 80.23,0 80.23,75.07 48.7,75.07 48.7,32.94 31.53,32.94 31.53,91.68 80.23,91.68 80.23,243.73 48.7,225.8 31.53,216.04 0,198.12 0,140.64 "
         id="polygon73"
         style="fill:#0099cc;fill-opacity:1;stroke:#000000;stroke-opacity:1;stroke-width:2;stroke-miterlimit:4;stroke-dasharray:none" />
      <path
         class="cls-3"
         d="m 99.52,0 v 254.69 l 7.08,4 24.45,13.9 9.19,5.23 8,-4.48 25.65,-14.34 5.86,-3.29 V 0 Z m 48.7,235.36 -8,4.48 -9.19,-5.23 V 32.94 h 17.17 z"
         id="path75"
         style="fill:#0099cc;fill-opacity:1;stroke:#000000;stroke-opacity:1;stroke-width:2;stroke-miterlimit:4;stroke-dasharray:none" />
    </g>
  </g>
</svg>
