<svg xmlns="http://www.w3.org/2000/svg" viewBox="0 0 492.97 153.01"><defs><style>.cls-1{fill:#fdfeff;}</style></defs><g id="Layer_2" data-name="Layer 2"><g id="Layer_1-2" data-name="Layer 1"><polygon class="cls-1" points="153.48 0 153.48 41.34 136.12 41.34 136.12 18.14 126.66 18.14 126.66 50.49 153.48 50.49 153.48 110.22 136.12 119.96 126.66 125.27 109.3 135.01 109.3 77.45 126.66 77.45 126.66 104.34 136.12 99.03 136.12 68.31 109.3 68.31 109.3 0 153.48 0"/><polygon class="cls-1" points="44.18 0 44.18 41.34 26.82 41.34 26.82 18.14 17.36 18.14 17.36 50.49 44.18 50.49 44.18 134.22 26.82 124.35 17.36 118.97 0 109.1 0 77.45 17.36 77.45 17.36 98.05 26.82 103.42 26.82 68.31 0 68.31 0 0 44.18 0"/><path class="cls-1" d="M54.8,0V140.26l3.91,2.21,13.46,7.66L77.23,153l4.39-2.47,14.14-7.93L99,140.8V0ZM81.62,129.61l-4.39,2.47-5.06-2.88V18.14h9.45Z"/><path class="cls-1" d="M183,70.69a31,31,0,0,1-10.31-4.84l4.55-10.11a30.63,30.63,0,0,0,8.87,4.39,33.08,33.08,0,0,0,10.27,1.66c3.81,0,6.62-.56,8.45-1.7a5.12,5.12,0,0,0,2.73-4.51,4.31,4.31,0,0,0-1.62-3.44A12.09,12.09,0,0,0,201.78,50c-1.68-.56-4-1.16-6.83-1.83A92.71,92.71,0,0,1,184.1,45a17.66,17.66,0,0,1-7.25-5.06q-3-3.48-3-9.27a16.19,16.19,0,0,1,2.73-9.16A18.39,18.39,0,0,1,184.8,15a33.65,33.65,0,0,1,13.46-2.4,44.23,44.23,0,0,1,10.85,1.33,31.81,31.81,0,0,1,9.28,3.81l-4.14,10.18a32.4,32.4,0,0,0-16.07-4.55q-5.64,0-8.32,1.82a5.57,5.57,0,0,0-2.7,4.8,4.71,4.71,0,0,0,3.11,4.44,49.37,49.37,0,0,0,9.48,2.85,93.87,93.87,0,0,1,10.85,3.15,18,18,0,0,1,7.25,5q3,3.4,3,9.19a15.81,15.81,0,0,1-2.78,9.07,18.59,18.59,0,0,1-8.32,6.51,34,34,0,0,1-13.5,2.4A47.18,47.18,0,0,1,183,70.69Z"/><path class="cls-1" d="M272.56,52.93H238.85a10.48,10.48,0,0,0,4.31,6.54,14.26,14.26,0,0,0,8.44,2.4,17.18,17.18,0,0,0,6.18-1,15,15,0,0,0,5-3.27L269.66,65q-6.3,7.22-18.39,7.21a29.07,29.07,0,0,1-13.33-2.94A21.54,21.54,0,0,1,229,61.13a22.48,22.48,0,0,1-3.15-11.85A22.79,22.79,0,0,1,229,37.48a21.7,21.7,0,0,1,8.53-8.2,25.06,25.06,0,0,1,12.14-2.94,24.8,24.8,0,0,1,11.84,2.82,20.51,20.51,0,0,1,8.32,8.07,24.05,24.05,0,0,1,3,12.22C272.81,49.61,272.73,50.77,272.56,52.93ZM242.33,38.6a10.57,10.57,0,0,0-3.65,6.79h21.95A10.64,10.64,0,0,0,257,38.64a10.93,10.93,0,0,0-7.29-2.53A11.11,11.11,0,0,0,242.33,38.6Z"/><path class="cls-1" d="M290.16,69.29a22,22,0,0,1-8.86-8.16,22.24,22.24,0,0,1-3.19-11.85,22.23,22.23,0,0,1,3.19-11.84,22,22,0,0,1,8.86-8.16A27.4,27.4,0,0,1,303,26.34a24.82,24.82,0,0,1,12.3,2.94,17.44,17.44,0,0,1,7.66,8.41l-10,5.38q-3.48-6.12-10-6.13a11.35,11.35,0,0,0-8.37,3.32q-3.31,3.3-3.31,9t3.31,9a11.35,11.35,0,0,0,8.37,3.32q6.62,0,10-6.13l10,5.46a17.81,17.81,0,0,1-7.66,8.29,24.62,24.62,0,0,1-12.3,3A27.4,27.4,0,0,1,290.16,69.29Z"/><path class="cls-1" d="M342.59,68.67a29,29,0,0,1-11.35-10.73,29.34,29.34,0,0,1-4.1-15.37,29.3,29.3,0,0,1,4.1-15.36,29,29,0,0,1,11.35-10.73,35.91,35.91,0,0,1,32.51,0,29,29,0,0,1,15.49,26.09,29,29,0,0,1-15.49,26.1,35.91,35.91,0,0,1-32.51,0Zm25.55-9.9a17,17,0,0,0,6.51-6.59A19.39,19.39,0,0,0,377,42.57a19.37,19.37,0,0,0-2.36-9.6,17,17,0,0,0-6.51-6.59,19.41,19.41,0,0,0-18.55,0,16.88,16.88,0,0,0-6.5,6.59,19.27,19.27,0,0,0-2.36,9.6,19.28,19.28,0,0,0,2.36,9.61,17,17,0,0,0,6.5,6.59,19.41,19.41,0,0,0,18.55,0Z"/><path class="cls-1" d="M437.43,29.2a20.43,20.43,0,0,1,8,8,24.18,24.18,0,0,1,2.9,12.05,24.22,24.22,0,0,1-2.9,12.06,20.43,20.43,0,0,1-8,8,22.77,22.77,0,0,1-11.31,2.86q-8.52,0-13.41-5.39V87.63H399.78V27h12.35v5.14q4.8-5.8,14-5.8A22.66,22.66,0,0,1,437.43,29.2Zm-5.38,29.07a12.54,12.54,0,0,0,3.19-9,12.51,12.51,0,0,0-3.19-9,11.59,11.59,0,0,0-16.32,0,12.47,12.47,0,0,0-3.19,9,12.49,12.49,0,0,0,3.19,9,11.59,11.59,0,0,0,16.32,0Z"/><path class="cls-1" d="M461.08,70.86a28.29,28.29,0,0,1-8.45-3.44l4.31-9.27a27,27,0,0,0,7.2,3.1,30.27,30.27,0,0,0,8.29,1.2q8.19,0,8.2-4.06a2.88,2.88,0,0,0-2.24-2.73,33.42,33.42,0,0,0-6.88-1.41,65.6,65.6,0,0,1-9-1.9,14,14,0,0,1-6.17-3.81q-2.61-2.73-2.61-7.79a12.18,12.18,0,0,1,2.44-7.49,15.78,15.78,0,0,1,7.12-5.1,30.55,30.55,0,0,1,11.06-1.82,43.39,43.39,0,0,1,9.4,1,26.52,26.52,0,0,1,7.75,2.85l-4.31,9.2a25.71,25.71,0,0,0-12.84-3.32,13.09,13.09,0,0,0-6.21,1.16,3.42,3.42,0,0,0-2.07,3,2.94,2.94,0,0,0,2.23,2.89,39.31,39.31,0,0,0,7.13,1.58,77.12,77.12,0,0,1,8.94,1.94,13.54,13.54,0,0,1,6,3.77Q493,53.19,493,58.06a11.77,11.77,0,0,1-2.49,7.38,15.85,15.85,0,0,1-7.25,5,32.41,32.41,0,0,1-11.3,1.78A43.31,43.31,0,0,1,461.08,70.86Z"/><path class="cls-1" d="M178.66,104.31a10.53,10.53,0,0,1-4.07-2.58l.86-1.43a10.09,10.09,0,0,0,3.74,2.39,13.35,13.35,0,0,0,4.95.92,9.37,9.37,0,0,0,5.67-1.43,4.42,4.42,0,0,0,1.92-3.72,3.91,3.91,0,0,0-1-2.82A6.84,6.84,0,0,0,188.2,94a36.48,36.48,0,0,0-4.06-1.16,41.06,41.06,0,0,1-4.65-1.39,7.48,7.48,0,0,1-3-2.09,5.59,5.59,0,0,1-1.22-3.78,6.44,6.44,0,0,1,1-3.51,6.94,6.94,0,0,1,3.11-2.54,12.59,12.59,0,0,1,5.2-.94,14.53,14.53,0,0,1,4.29.64A12.46,12.46,0,0,1,192.56,81l-.72,1.54a12.21,12.21,0,0,0-3.47-1.66,13.37,13.37,0,0,0-3.75-.56,8.82,8.82,0,0,0-5.52,1.47,4.56,4.56,0,0,0-1.88,3.79,3.91,3.91,0,0,0,1,2.82A6.6,6.6,0,0,0,180.75,90a36,36,0,0,0,4.1,1.2,37,37,0,0,1,4.62,1.4,7.64,7.64,0,0,1,3,2,5.4,5.4,0,0,1,1.22,3.71,6.22,6.22,0,0,1-1,3.49,6.92,6.92,0,0,1-3.17,2.52,13.08,13.08,0,0,1-5.27.94A15.46,15.46,0,0,1,178.66,104.31Z"/><path class="cls-1" d="M218.69,103.88a4.76,4.76,0,0,1-1.79,1,7,7,0,0,1-2.23.36,4.87,4.87,0,0,1-5.34-5.34V87.11h-3.61V85.49h3.61V81.2h1.88v4.29h6.24v1.62h-6.24V99.74a4.1,4.1,0,0,0,.92,2.91,3.5,3.5,0,0,0,2.72,1,4.35,4.35,0,0,0,3.05-1.09Z"/><path class="cls-1" d="M249.18,95.75H232.3a8.17,8.17,0,0,0,1.17,4.08,7.42,7.42,0,0,0,2.95,2.77,8.89,8.89,0,0,0,4.19,1,9,9,0,0,0,3.55-.69,7,7,0,0,0,2.73-2l1.09,1.24a8.28,8.28,0,0,1-3.22,2.37,11.15,11.15,0,0,1-9.41-.45,9.28,9.28,0,0,1-3.6-3.54,10.18,10.18,0,0,1-1.29-5.15,10.62,10.62,0,0,1,1.22-5.13,8.94,8.94,0,0,1,3.37-3.55,9.71,9.71,0,0,1,9.6,0A9,9,0,0,1,248,90.11a10.64,10.64,0,0,1,1.22,5.12Zm-13-7.84a7.06,7.06,0,0,0-2.66,2.6,8.46,8.46,0,0,0-1.14,3.78h15a7.86,7.86,0,0,0-1.13-3.76,7.67,7.67,0,0,0-10.11-2.62Z"/><path class="cls-1" d="M292.12,85.49l-7.44,19.63h-1.77l-6.62-17-6.65,17h-1.73l-7.45-19.63h1.81L268.81,103l6.69-17.52h1.62L283.77,103l6.62-17.48Z"/><path class="cls-1" d="M317.5,87.2a7.21,7.21,0,0,1,2,5.47v12.45h-1.81v-3.5a6.58,6.58,0,0,1-2.74,2.69,9.14,9.14,0,0,1-4.33,1,8,8,0,0,1-5.17-1.55,5.32,5.32,0,0,1-.15-8c1.17-1,3-1.52,5.59-1.52h6.73V92.6a5.56,5.56,0,0,0-1.49-4.18A6,6,0,0,0,311.75,87a10.46,10.46,0,0,0-3.74.68,9.44,9.44,0,0,0-3,1.8L304,88.12a10.51,10.51,0,0,1,3.53-2.05,12.83,12.83,0,0,1,4.33-.73A7.81,7.81,0,0,1,317.5,87.2ZM315,102.6a6.92,6.92,0,0,0,2.58-3.27V95.64h-6.7a6.68,6.68,0,0,0-4.19,1,3.56,3.56,0,0,0-1.3,2.9,3.64,3.64,0,0,0,1.43,3,6.46,6.46,0,0,0,4,1.1A7.37,7.37,0,0,0,315,102.6Z"/><path class="cls-1" d="M341.23,86.49a8.85,8.85,0,0,1,4.66-1.15v1.84l-.45,0a6.56,6.56,0,0,0-5.12,2,8.28,8.28,0,0,0-1.84,5.7v10.23H336.6V85.49h1.81v4.29A6.75,6.75,0,0,1,341.23,86.49Z"/><path class="cls-1" d="M377.73,77.22v27.9h-1.84v-4.63a8.37,8.37,0,0,1-3.27,3.54,9.27,9.27,0,0,1-4.77,1.24,9.81,9.81,0,0,1-5-1.28,9.11,9.11,0,0,1-3.48-3.54,10.47,10.47,0,0,1-1.25-5.15,10.6,10.6,0,0,1,1.25-5.17,9,9,0,0,1,3.48-3.53,9.9,9.9,0,0,1,5-1.26,9.07,9.07,0,0,1,4.72,1.24A8.91,8.91,0,0,1,375.86,90V77.22ZM372,102.52a7.57,7.57,0,0,0,2.82-2.93,9.35,9.35,0,0,0,0-8.57A7.6,7.6,0,0,0,372,88.08a8.3,8.3,0,0,0-8.08,0A7.6,7.6,0,0,0,361.1,91a9.35,9.35,0,0,0,0,8.57,7.57,7.57,0,0,0,2.82,2.93,8.3,8.3,0,0,0,8.08,0Z"/></g></g></svg>